# xmcd
# 
# Track frame offsets:
#     150
#     18562
#     36760
#     54687
#     69255
#     85155
#     101347
#     120702
#     138850
#     155820
#     175150
#     191790
# 
# Disc length: 2876
# 
# Revision: 5
# Processed by: cddbd v1.5.2PL0 Copyright (c) Steve Scherf et al.
# Submitted via: fre:ac v1.0.31
# 
DISCID=9f0b3a0c
DTITLE=Caught In The Act - Caught In The Act Of Love
DYEAR=1995
DGENRE=Pop
TTITLE0=Love Is Everywhere
TTITLE1=My Arms Keep Missing You
TTITLE2=One Of A Kind
TTITLE3=You Know
TTITLE4=I Can't Let Go
TTITLE5=Best Friend
TTITLE6=Wipe The Tears From Your Eyes
TTITLE7=Caught In The Act Of Love
TTITLE8=We Belong Together
TTITLE9=A Better Place
TTITLE10=Let This Love Begin
TTITLE11=My Arms Keep Missing You (B Squared D Extended)
EXTD=
EXTT0=
EXTT1=
EXTT2=
EXTT3=
EXTT4=
EXTT5=
EXTT6=
EXTT7=
EXTT8=
EXTT9=
EXTT10=
EXTT11=
PLAYORDER=
